<svg width="428" height="154" viewBox="0 0 428 154" fill="none" xmlns="http://www.w3.org/2000/svg">
<rect width="428" height="154" fill="#212529"/>
<circle cx="69" cy="77" r="69" fill="#6C90D4"/>
<circle cx="47.5" cy="42.5" r="42.5" fill="#ECE64E" fill-opacity="0.68"/>
<circle cx="96.5" cy="57.5" r="49.5" fill="#D14DE7" fill-opacity="0.5"/>
<circle cx="84.5" cy="98.5" r="47.5" fill="#48EF3A" fill-opacity="0.56"/>
<rect x="352.894" y="80" width="12" height="13" transform="rotate(49.5604 352.894 80)" fill="#5072EA"/>
<path d="M158.424 139.568C161.923 139.568 164.632 139.077 166.552 138.096C168.472 137.115 169.432 135.685 169.432 133.808C169.432 132.144 168.856 130.715 167.704 129.52C166.552 128.283 165.123 127.237 163.416 126.384C161.709 125.531 159.384 124.528 156.44 123.376C156.184 123.291 155.565 123.056 154.584 122.672C150.573 121.051 147.48 119.429 145.304 117.808C143.171 116.187 142.104 114.096 142.104 111.536C142.104 108.677 143.235 106.523 145.496 105.072C147.757 103.621 150.659 102.896 154.2 102.896C156.803 102.896 159.192 103.237 161.368 103.92C163.587 104.56 165.336 105.456 166.616 106.608C167.939 107.76 168.6 109.061 168.6 110.512C168.088 110.768 167.597 110.896 167.128 110.896C166.616 110.896 166.083 110.789 165.528 110.576C165.016 110.32 164.248 109.915 163.224 109.36C161.56 108.464 160.003 107.76 158.552 107.248C157.101 106.693 155.395 106.416 153.432 106.416C150.957 106.416 148.952 106.843 147.416 107.696C145.88 108.549 145.112 109.744 145.112 111.28C145.112 112.475 145.624 113.563 146.648 114.544C147.715 115.525 149.037 116.4 150.616 117.168C152.237 117.893 154.392 118.768 157.08 119.792C160.493 121.115 163.309 122.352 165.528 123.504C167.747 124.656 169.624 126.128 171.16 127.92C172.739 129.669 173.528 131.76 173.528 134.192C173.528 137.051 172.163 139.269 169.432 140.848C166.701 142.384 163.309 143.152 159.256 143.152C156.056 143.152 152.899 142.683 149.784 141.744C146.669 140.805 144.003 139.419 141.784 137.584C139.565 135.707 138.157 133.467 137.56 130.864C137.56 129.712 137.88 128.731 138.52 127.92C139.16 127.067 139.949 126.64 140.888 126.64C140.888 129.413 141.656 131.781 143.192 133.744C144.771 135.664 146.883 137.115 149.528 138.096C152.216 139.077 155.181 139.568 158.424 139.568ZM192.831 142.128C188.564 142.128 185.343 141.403 183.167 139.952C180.991 138.459 179.903 135.771 179.903 131.888C180.756 110.555 182.121 100.379 183.999 101.36C184.937 101.403 185.407 102.853 185.407 105.712C185.407 107.461 185.108 111.152 184.51 116.784C183.743 123.269 183.359 128.027 183.359 131.056L183.423 132.912C183.423 133.851 183.7 134.789 184.255 135.728C184.852 136.667 185.599 137.179 186.495 137.264L199.039 138.352C199.508 138.395 199.743 138.843 199.743 139.696C199.743 140.464 199.551 140.997 199.167 141.296C198.825 141.595 198.207 141.829 197.311 142L192.831 142.128ZM221.382 142.064C217.841 142.064 214.662 141.339 211.846 139.888C209.073 138.437 206.897 136.389 205.318 133.744C203.739 131.099 202.95 128.048 202.95 124.592C202.95 122.245 203.419 120.091 204.358 118.128C205.297 116.165 206.662 114.608 208.454 113.456C210.246 112.261 212.358 111.664 214.79 111.664C219.398 111.664 223.494 112.453 227.078 114.032C230.705 115.568 233.521 117.787 235.526 120.688C237.574 123.589 238.598 126.939 238.598 130.736C238.598 133.253 237.659 135.365 235.782 137.072C233.947 138.779 231.686 140.037 228.998 140.848C226.353 141.659 223.814 142.064 221.382 142.064ZM220.166 138.736C224.433 138.736 228.017 138.096 230.918 136.816C233.862 135.536 235.334 133.403 235.334 130.416C235.334 125.211 233.329 121.307 229.318 118.704C225.307 116.059 220.187 114.736 213.958 114.736C210.971 114.736 208.859 115.632 207.622 117.424C206.427 119.173 205.83 121.563 205.83 124.592C205.83 127.109 206.427 129.456 207.622 131.632C208.859 133.765 210.566 135.493 212.742 136.816C214.918 138.096 217.393 138.736 220.166 138.736ZM258.197 142.064C257.941 142.149 257.727 142.192 257.557 142.192C257.343 142.192 257.109 142.128 256.853 142C255.743 140.293 254.869 138.843 254.229 137.648C253.631 136.411 252.629 134.277 251.22 131.248C249.685 127.664 247.722 122.608 245.333 116.08C242.943 109.552 241.748 105.563 241.748 104.112C241.748 103.728 241.834 103.451 242.005 103.28C242.175 103.067 242.389 102.96 242.645 102.96C242.858 102.96 243.029 103.003 243.157 103.088C243.669 103.387 244.479 104.88 245.589 107.568C246.741 110.213 248.319 114.181 250.325 119.472C253.61 128.176 256.213 134.619 258.133 138.8C259.071 137.904 260.394 135.259 262.101 130.864C263.807 126.427 265.365 121.52 266.773 116.144C268.223 110.768 269.077 106.203 269.333 102.448C271.21 102.32 272.149 103.067 272.149 104.688C272.149 107.419 271.381 111.685 269.845 117.488C268.309 123.291 266.453 128.645 264.277 133.552C262.101 138.416 260.074 141.253 258.197 142.064ZM288.387 142.064C284.846 142.064 282.264 141.403 280.643 140.08C279.064 138.757 278.275 136.368 278.275 132.912L279.171 118.576V104.816C279.171 103.749 279.384 103.067 279.811 102.768C280.238 102.427 281.176 102.256 282.627 102.256L286.979 102.384C292.44 102.683 297.774 102.832 302.979 102.832C304.088 102.832 304.963 103.152 305.603 103.792C306.286 104.432 306.627 105.307 306.627 106.416C306.627 106.629 306.563 106.8 306.435 106.928C306.307 107.056 306.158 107.099 305.987 107.056L302.979 105.904L282.947 106.416C282.691 106.416 282.542 106.395 282.499 106.352C282.67 106.693 282.755 106.992 282.755 107.248V118.576C284.718 118.704 286.616 118.768 288.451 118.768C291.608 118.768 295.086 118.619 298.883 118.32C299.267 118.277 299.843 118.235 300.611 118.192C301.422 118.107 301.87 118.107 301.955 118.192C302.211 118.448 302.403 118.683 302.531 118.896C302.659 119.109 302.744 119.408 302.787 119.792C302.915 120.731 301.486 121.349 298.499 121.648C295.555 121.947 291.608 122.181 286.659 122.352C284.995 122.352 283.608 122.395 282.499 122.48C281.987 123.76 281.731 125.808 281.731 128.624L281.795 132.4V136.56C282.478 137.115 283.224 137.477 284.035 137.648C284.846 137.819 286.168 137.904 288.003 137.904C289.923 137.904 291.8 137.797 293.635 137.584C295.512 137.371 296.622 137.243 296.963 137.2C300.547 136.773 303.214 136.56 304.963 136.56C305.987 136.56 306.691 136.667 307.075 136.88C307.502 137.051 307.715 137.371 307.715 137.84C307.715 140.656 301.998 142.064 290.563 142.064H288.387ZM341.536 110.128C342.773 110.128 344.053 111.344 345.376 113.776C346.698 116.208 347.808 119.003 348.704 122.16C349.6 125.275 350.048 127.6 350.048 129.136C350.048 131.483 349.536 133.595 348.512 135.472C347.53 137.307 346.122 138.757 344.288 139.824C342.453 140.848 340.362 141.36 338.016 141.36C334.773 141.36 331.957 140.485 329.568 138.736C327.221 136.987 325.344 134.981 323.936 132.72C322.528 130.416 321.077 127.664 319.584 124.464L318.688 122.544L318.816 138.032C318.816 138.971 318.645 139.888 318.304 140.784C318.005 141.637 317.472 142.064 316.704 142.064C315.936 142.064 315.381 141.637 315.04 140.784C314.698 139.888 314.528 139.013 314.528 138.16C314.528 135.429 314.741 131.504 315.168 126.384C315.594 121.264 315.808 117.445 315.808 114.928C315.808 114.331 315.765 113.712 315.68 113.072C315.594 112.432 315.53 111.984 315.488 111.728C315.274 110.576 315.168 109.552 315.168 108.656V108.4C315.296 108.4 315.68 108.315 316.32 108.144C317.002 107.931 317.408 107.824 317.536 107.824H318.176C319.797 115.12 322.186 121.861 325.344 128.048C328.544 134.192 332.917 137.264 338.464 137.264C341.066 137.264 343.029 136.496 344.352 134.96C345.717 133.381 346.4 131.269 346.4 128.624C346.4 126.363 346.037 124.293 345.312 122.416C344.586 120.496 343.498 118.149 342.048 115.376L340.32 111.984C340.192 111.771 340.128 111.557 340.128 111.344C340.128 111.003 340.256 110.725 340.512 110.512C340.768 110.256 341.109 110.128 341.536 110.128ZM318.816 138.032V137.904V138.032ZM364.499 142C363.944 142.213 363.411 142.085 362.899 141.616C362.43 141.147 362.174 140.485 362.131 139.632C361.96 138.395 361.768 136.88 361.555 135.088C361.384 133.296 361.256 131.973 361.171 131.12C361.086 130.267 360.894 128.624 360.595 126.192C360.339 123.717 360.062 121.584 359.763 119.792C359.678 119.195 359.4 118.128 358.931 116.592C357.694 112.197 357.075 109.019 357.075 107.056C357.374 106.629 357.672 106.416 357.971 106.416C359.08 106.416 360.232 108.635 361.427 113.072C362.622 117.509 363.624 122.523 364.435 128.112C365.288 133.659 365.715 137.456 365.715 139.504C365.715 139.589 365.715 139.867 365.715 140.336C365.715 140.763 365.608 141.125 365.395 141.424C365.224 141.723 364.926 141.915 364.499 142ZM401.578 142.064C401.066 142.064 400.703 141.936 400.49 141.68C400.319 141.424 400.234 141.061 400.234 140.592C400.234 139.653 400.447 138.203 400.874 136.24C401.343 134.448 401.578 132.976 401.578 131.824C401.578 128.496 401.322 125.957 400.81 124.208H398.826C397.076 124.208 394.794 124.165 391.978 124.08L385.962 124.016H377.322L377.45 126.512C377.45 128.475 377.77 130.928 378.41 133.872C378.623 135.067 378.815 136.283 378.986 137.52C379.199 138.715 379.306 139.803 379.306 140.784V141.36C378.879 141.787 378.431 142 377.962 142C376.852 142 375.978 140.699 375.338 138.096C374.698 135.451 374.378 132.272 374.378 128.56C374.378 127.067 374.442 125.595 374.57 124.144C373.631 124.101 372.991 123.952 372.65 123.696C372.308 123.397 372.138 122.949 372.138 122.352C372.138 121.883 372.266 121.563 372.522 121.392C372.82 121.221 373.332 121.093 374.058 121.008L373.994 119.28L374.186 116.336C374.484 111.515 374.932 107.589 375.53 104.56C376.127 101.531 377.407 98.9067 379.37 96.688C381.332 94.4693 384.276 93.36 388.202 93.36C392.682 93.36 396.18 95.7707 398.698 100.592C401.215 105.413 402.922 110.789 403.818 116.72C404.714 122.651 405.162 127.749 405.162 132.016C405.162 133.552 405.119 134.896 405.034 136.048C404.948 137.157 404.778 138.544 404.522 140.208C403.54 141.445 402.559 142.064 401.578 142.064ZM400.554 121.712C399.743 113.819 398.292 107.632 396.202 103.152C394.111 98.6293 390.975 96.368 386.794 96.368C383.679 96.368 381.375 97.8187 379.882 100.72C378.431 103.579 377.556 106.651 377.258 109.936C376.959 113.221 376.81 116.912 376.81 121.008L400.554 121.712Z" fill="white"/>
<rect x="424.991" y="130" width="12" height="13" transform="rotate(87.8153 424.991 130)" fill="#EAB650"/>
<path d="M64.5 83L72.7272 108.5H56.2728L64.5 83Z" fill="#300808"/>
<path d="M77.5 88L85.7272 105.25H69.2728L77.5 88Z" fill="#300808"/>
<path d="M98 69L110.99 108H85.0096L98 69Z" fill="#300808"/>
</svg>
